<svg width="149" height="88" viewBox="0 0 149 88" fill="none" xmlns="http://www.w3.org/2000/svg">
<line x1="15.5" y1="40" x2="15.5" stroke="#009900" stroke-width="3"/>
<rect x="33.5" y="40.5" width="15.5" height="47" fill="#C4C4C4" stroke="white"/>
<line x1="39.5" y1="41.5" x2="39.5" y2="86.5" stroke="#F0F0F4"/>
<rect x="50" y="40.5" width="15.5" height="47" fill="#C4C4C4" stroke="white"/>
<line x1="56" y1="41.5" x2="56" y2="86.5" stroke="#F0F0F4"/>
<rect x="66.5" y="40.5" width="15.5" height="47" fill="#C4C4C4" stroke="white"/>
<line x1="72.5" y1="41.5" x2="72.5" y2="86.5" stroke="#F0F0F4"/>
<rect x="83" y="40.5" width="15.5" height="47" fill="#C4C4C4" stroke="white"/>
<line x1="89" y1="41.5" x2="89" y2="86.5" stroke="#F0F0F4"/>
<rect x="99.5" y="40.5" width="15.5" height="47" fill="#C4C4C4" stroke="white"/>
<line x1="105.5" y1="41.5" x2="105.5" y2="86.5" stroke="#F0F0F4"/>
<rect x="116" y="40.5" width="15.5" height="47" fill="#C4C4C4" stroke="white"/>
<line x1="122" y1="41.5" x2="122" y2="86.5" stroke="#F0F0F4"/>
<rect x="132.5" y="40.5" width="15.5" height="47" fill="#C4C4C4" stroke="white"/>
<line x1="138.5" y1="41.5" x2="138.5" y2="86.5" stroke="#F0F0F4"/>
<rect x="0.5" y="40.5" width="32" height="47" fill="#C4C4C4" stroke="white"/>
<line x1="1.5" y1="71" x2="31.5" y2="71" stroke="#F0F0F4"/>
<rect x="6" y="46" width="3" height="6" fill="#F0F0F4"/>
</svg>
