<svg width="183" height="130" viewBox="0 0 183 130" fill="none" xmlns="http://www.w3.org/2000/svg">
<line x1="18.5" y1="130" x2="18.5" y2="6.55671e-08" stroke="#009900" stroke-width="3"/>
<line x1="100.5" y1="130" x2="100.5" y2="6.55671e-08" stroke="#009900" stroke-width="3"/>
<g filter="url(#filter0_d_944_61)">
<rect x="123.5" y="35.5" width="15.5" height="47" fill="#C4C4C4" stroke="white"/>
<line x1="129.5" y1="36.5" x2="129.5" y2="81.5" stroke="#F0F0F4"/>
<rect x="140" y="35.5" width="15.5" height="47" fill="#C4C4C4" stroke="white"/>
<line x1="146" y1="36.5" x2="146" y2="81.5" stroke="#F0F0F4"/>
<rect x="156.5" y="35.5" width="15.5" height="47" fill="#C4C4C4" stroke="white"/>
<line x1="162.5" y1="36.5" x2="162.5" y2="81.5" stroke="#F0F0F4"/>
<rect x="90.5" y="35.5" width="32" height="47" fill="#C4C4C4" stroke="white"/>
<line x1="91.5" y1="66" x2="121.5" y2="66" stroke="#F0F0F4"/>
<rect x="96" y="41" width="3" height="6" fill="#F0F0F4"/>
</g>
<g filter="url(#filter1_d_944_61)">
<rect x="41.5" y="35.5" width="15.5" height="47" fill="#C4C4C4" stroke="white"/>
<line x1="47.5" y1="36.5" x2="47.5" y2="81.5" stroke="#F0F0F4"/>
<rect x="58" y="35.5" width="15.5" height="47" fill="#C4C4C4" stroke="white"/>
<line x1="64" y1="36.5" x2="64" y2="81.5" stroke="#F0F0F4"/>
<rect x="74.5" y="35.5" width="15.5" height="47" fill="#C4C4C4" stroke="white"/>
<line x1="80.5" y1="36.5" x2="80.5" y2="81.5" stroke="#F0F0F4"/>
<rect x="8.5" y="35.5" width="32" height="47" fill="#C4C4C4" stroke="white"/>
<line x1="9.5" y1="66" x2="39.5" y2="66" stroke="#F0F0F4"/>
<rect x="14" y="41" width="3" height="6" fill="#F0F0F4"/>
</g>
<defs>
<filter id="filter0_d_944_61" x="82" y="30" width="100.5" height="66" filterUnits="userSpaceOnUse" color-interpolation-filters="sRGB">
<feFlood flood-opacity="0" result="BackgroundImageFix"/>
<feColorMatrix in="SourceAlpha" type="matrix" values="0 0 0 0 0 0 0 0 0 0 0 0 0 0 0 0 0 0 127 0" result="hardAlpha"/>
<feOffset dx="1" dy="4"/>
<feGaussianBlur stdDeviation="4.5"/>
<feComposite in2="hardAlpha" operator="out"/>
<feColorMatrix type="matrix" values="0 0 0 0 0 0 0 0 0 0 0 0 0 0 0 0 0 0 0.25 0"/>
<feBlend mode="normal" in2="BackgroundImageFix" result="effect1_dropShadow_944_61"/>
<feBlend mode="normal" in="SourceGraphic" in2="effect1_dropShadow_944_61" result="shape"/>
</filter>
<filter id="filter1_d_944_61" x="0" y="30" width="100.5" height="66" filterUnits="userSpaceOnUse" color-interpolation-filters="sRGB">
<feFlood flood-opacity="0" result="BackgroundImageFix"/>
<feColorMatrix in="SourceAlpha" type="matrix" values="0 0 0 0 0 0 0 0 0 0 0 0 0 0 0 0 0 0 127 0" result="hardAlpha"/>
<feOffset dx="1" dy="4"/>
<feGaussianBlur stdDeviation="4.5"/>
<feComposite in2="hardAlpha" operator="out"/>
<feColorMatrix type="matrix" values="0 0 0 0 0 0 0 0 0 0 0 0 0 0 0 0 0 0 0.25 0"/>
<feBlend mode="normal" in2="BackgroundImageFix" result="effect1_dropShadow_944_61"/>
<feBlend mode="normal" in="SourceGraphic" in2="effect1_dropShadow_944_61" result="shape"/>
</filter>
</defs>
</svg>
