<svg width="226" height="143" viewBox="0 0 226 143" fill="none" xmlns="http://www.w3.org/2000/svg">
<line x1="109.5" y1="143" x2="109.5" y2="6.55671e-08" stroke="#009900" stroke-width="3"/>
<g filter="url(#filter0_d_944_60)">
<rect x="12" y="33" width="202" height="77" fill="#EFEFF0"/>
<rect x="12.5" y="33.5" width="201" height="76" stroke="#C4C4C4"/>
</g>
<rect x="196.755" y="39.7571" width="10.3806" height="61.3271" fill="#D9D9D9" stroke="white" stroke-width="2"/>
<rect x="180.464" y="39.7571" width="10.3806" height="61.3271" fill="#D9D9D9" stroke="white" stroke-width="2"/>
<rect x="164.174" y="39.7571" width="10.3806" height="61.3271" fill="#D9D9D9" stroke="white" stroke-width="2"/>
<rect x="29.9419" y="68.542" width="42.9613" height="7.35514" rx="3.67757" fill="#E3E3E3" stroke="white" stroke-width="2"/>
<rect x="29.9419" y="85.8131" width="43.6129" height="7.35514" rx="3.67757" fill="#E3E3E3" stroke="white" stroke-width="2"/>
<path d="M40.3225 49.1915C40.3225 52.1132 38.1994 54.3084 35.7838 54.3084C33.3683 54.3084 31.2451 52.1132 31.2451 49.1915C31.2451 46.2699 33.3683 44.0747 35.7838 44.0747C38.1994 44.0747 40.3225 46.2699 40.3225 49.1915Z" fill="#D9D9D9" stroke="white" stroke-width="2"/>
<defs>
<filter id="filter0_d_944_60" x="0" y="25" width="226" height="101" filterUnits="userSpaceOnUse" color-interpolation-filters="sRGB">
<feFlood flood-opacity="0" result="BackgroundImageFix"/>
<feColorMatrix in="SourceAlpha" type="matrix" values="0 0 0 0 0 0 0 0 0 0 0 0 0 0 0 0 0 0 127 0" result="hardAlpha"/>
<feOffset dy="4"/>
<feGaussianBlur stdDeviation="6"/>
<feComposite in2="hardAlpha" operator="out"/>
<feColorMatrix type="matrix" values="0 0 0 0 0 0 0 0 0 0 0 0 0 0 0 0 0 0 0.25 0"/>
<feBlend mode="normal" in2="BackgroundImageFix" result="effect1_dropShadow_944_60"/>
<feBlend mode="normal" in="SourceGraphic" in2="effect1_dropShadow_944_60" result="shape"/>
</filter>
</defs>
</svg>
